# xmcd CD database file
#
# Track frame offsets:
#	150
#	12775
#	22700
#	34400
#	44600
#	57125
#	68000
#	77875
#	85450
#	95575
#	107575
#	118250
#	130675
#	142975
#	154100
#	164775
#	176700
#	186725
#
# Disc length: 2598 seconds
#
# Revision: 0
# Processed by: cddbd v1.4PL0 Copyright (c) Steve Scherf et al.
# Submitted via: Feurio! 1.60.2ß - http://www.feurio.com
#
DISCID=f90a2412
DTITLE=Johnny Cash - The Legend
DYEAR=1991
DGENRE=Country
TTITLE0=Folsom Prison Blues
TTITLE1=Hey Porter
TTITLE2=So doggone lonesome
TTITLE3=There you go
TTITLE4=Next in line
TTITLE5=Cry, cry, cry
TTITLE6=Ballad of a teenage queen
TTITLE7=Come in, stranger
TTITLE8=The ways of a woman in love
TTITLE9=You`re the nearest thing to heaven
TTITLE10=I just thought you`d like to know
TTITLE11=Give my love to Rose
TTITLE12=I walk the line
TTITLE13=Don`t make me go
TTITLE14=Train of love
TTITLE15=Home of the blues
TTITLE16=Get rhythm
TTITLE17=Guess things happen that way
EXTD=
EXTT0=
EXTT1=
EXTT2=
EXTT3=
EXTT4=
EXTT5=
EXTT6=
EXTT7=
EXTT8=
EXTT9=
EXTT10=
EXTT11=
EXTT12=
EXTT13=
EXTT14=
EXTT15=
EXTT16=
EXTT17=
PLAYORDER=
